<svg id="Layer_1" data-name="Layer 1" xmlns="http://www.w3.org/2000/svg" viewBox="0 0 1000 289.71"><defs><style>.cls-1{fill:#fff;}.cls-2{fill:#184b80;}.cls-3{fill:#6f777f;}</style></defs><title>KOR</title><path class="cls-1" d="M48.62,247.76h61.7v-38.3a247.75,247.75,0,0,0,43.22-8.65l25,46.95h69.74l-42-70.8c33.93-22.05,55-52.87,55-87C261.32,54.06,238,21.82,201-.37H-.27V48.09C24.9,28.67,64.1,16.18,108.14,16.18c75.91,0,132,25.34,132,82.82,0,31.19-16.5,52.93-43.77,66.25a34.21,34.21,0,0,0-4-2.3C186,159.71,175,156.41,175,156.41s53.92-4,53.92-57.72S172.53,44,172.53,44H48.62V173.66c-19.22-5.58-35.9-13.79-48.89-23.81v48.53a245.24,245.24,0,0,0,48.89,10.83Zm62.2-159.53c36,0,54.67-4.24,54.67,17,0,22.72-23.78,17.62-54.67,17.62ZM110.26,168h16.56c6.73,0,11.77,7.29,15,12a283.6,283.6,0,0,1-31.51,1.8Z"/><path class="cls-2" d="M165.49,105.23c0-21.24-18.68-17-54.67-17v34.62C141.71,122.85,165.49,128,165.49,105.23Z"/><path class="cls-2" d="M48.62,44H172.53s56.41,1,56.41,54.74S175,156.41,175,156.41s11,3.3,17.31,6.54a34.21,34.21,0,0,1,4,2.3c27.27-13.32,43.77-35.06,43.77-66.25,0-57.48-56-82.82-131.95-82.82-44,0-83.24,12.49-108.41,31.91V149.85c13,10,29.67,18.23,48.89,23.81Z"/><path class="cls-2" d="M126.82,168H110.26v13.76a283.6,283.6,0,0,0,31.51-1.8C138.59,175.28,133.55,168,126.82,168Z"/><path class="cls-2" d="M279.93-.37H201C238,21.82,261.32,54.06,261.32,90c0,34.12-21.11,64.94-55,87l42,70.8H178.51l-25-46.95a247.75,247.75,0,0,1-43.22,8.65v38.3H48.62V209.21A245.24,245.24,0,0,1-.27,198.38v91.71H290.2V-.37Z"/><path class="cls-3" d="M410.17,128.12l64.61-84.07H540.2l-80.83,96.51,88.39,107.31H479.1l-68.93-88.4v88.4h-53V44.05h53Z"/><path class="cls-3" d="M522.62,146a105,105,0,0,1,67.17-99.34q20.69-8.25,45.55-8.25a122.21,122.21,0,0,1,45.42,8.25,107.51,107.51,0,0,1,35.81,22.84A104.6,104.6,0,0,1,740,103.66a106.53,106.53,0,0,1,8.38,42.3A106.61,106.61,0,0,1,740,188.27a104.55,104.55,0,0,1-23.39,34.19,107.35,107.35,0,0,1-35.81,22.84,122.21,122.21,0,0,1-45.42,8.25q-24.87,0-45.55-8.25A105.41,105.41,0,0,1,522.62,146ZM578,146a54.39,54.39,0,0,0,4.59,22.44A56.17,56.17,0,0,0,613.31,198a60,60,0,0,0,44.06,0,57.91,57.91,0,0,0,18.38-11.76,55.58,55.58,0,0,0,12.57-17.84,57,57,0,0,0,0-44.87,55.62,55.62,0,0,0-12.57-17.85,59.5,59.5,0,0,0-62.44-11.76,56.15,56.15,0,0,0-30.68,29.61A54.31,54.31,0,0,0,578,146Z"/><path class="cls-3" d="M747.79,221.92a31.78,31.78,0,1,1,2.44,12.3A31.43,31.43,0,0,1,747.79,221.92Z"/><path class="cls-3" d="M1000,247.87H934l-50.55-78.39v78.39h-53V44.05H913q17,0,29.73,5a55.95,55.95,0,0,1,33.38,33.66,69.54,69.54,0,0,1,4.2,24.33q0,23.25-11.22,37.71t-33.12,19.59ZM883.49,135.15h10q15.68,0,24.06-6.49T925.93,110q0-12.17-8.38-18.65t-24.06-6.49h-10Z"/></svg>